<svg width="28" height="30" viewBox="0 0 28 30" fill="none" xmlns="http://www.w3.org/2000/svg">
<path d="M28 10.618V19.3813C28.0002 20.4761 27.7084 21.5516 27.154 22.4998C26.5996 23.448 25.8021 24.2353 24.8418 24.7824L24.3992 25.0329L20.4348 27.2941L17.1594 29.1629C16.199 29.7112 15.1093 30 14 30C12.8907 30 11.801 29.7112 10.8406 29.1629L9.40512 28.3431L3.15817 24.7824C2.1979 24.2353 1.40048 23.448 0.846092 22.4998C0.2917 21.5516 -0.000113543 20.4761 3.31411e-08 19.3813V10.618C-0.000113543 9.52314 0.2917 8.44757 0.846092 7.49943C1.40048 6.55131 2.1979 5.76404 3.15817 5.21684L10.8406 0.836365C11.8011 0.288467 12.8908 0 14 0C15.1092 0 16.1989 0.288467 17.1594 0.836365L24.8418 5.21684C25.8021 5.76404 26.5996 6.55131 27.154 7.49943C27.7084 8.44757 28.0002 9.52314 28 10.618Z" fill="url(#paint0_linear_194_5979)"/>
<path d="M27 10.6178V10.618V19.3813V19.3815C27.0002 20.2982 26.7559 21.1995 26.2907 21.995C25.8258 22.7902 25.1562 23.452 24.3482 23.9128C24.3477 23.913 24.3472 23.9133 24.3468 23.9136L23.9068 24.1625L23.9037 24.1642L19.9393 26.4254L19.9392 26.4255L16.6638 28.2943L16.6635 28.2945C15.8547 28.7563 14.9359 29 14 29C13.0641 29 12.1454 28.7563 11.3366 28.2945C11.3365 28.2945 11.3365 28.2945 11.3365 28.2945L9.90103 27.4747L9.9003 27.4743L3.65336 23.9137L3.65323 23.9136C2.84458 23.4528 2.17456 22.7907 1.70936 21.995C1.24422 21.1995 0.999905 20.2982 1 19.3814V19.3813V10.618V10.6179C0.999905 9.70107 1.24422 8.79967 1.70935 8.00419C2.17454 7.20863 2.84455 6.54651 3.65327 6.08567L3.6535 6.08554L11.336 1.70507L11.3361 1.70498C12.1452 1.24346 13.064 1 14 1C14.936 1 15.8548 1.24346 16.6639 1.70498L16.664 1.70507L24.3465 6.08554L24.3467 6.08568C25.1555 6.54654 25.8256 7.20866 26.2907 8.0042C26.7559 8.79968 27.0002 9.70105 27 10.6178Z" stroke="white" stroke-opacity="0.2" stroke-width="2"/>
<path d="M10.2669 20V18.782L14.1589 15.086C14.4855 14.778 14.7282 14.5073 14.8869 14.274C15.0455 14.0407 15.1482 13.826 15.1949 13.63C15.2509 13.4247 15.2789 13.2333 15.2789 13.056C15.2789 12.608 15.1249 12.2627 14.8169 12.02C14.5089 11.768 14.0562 11.642 13.4589 11.642C12.9829 11.642 12.5489 11.726 12.1569 11.894C11.7742 12.062 11.4429 12.3187 11.1629 12.664L9.88887 11.684C10.2715 11.1707 10.7849 10.774 11.4289 10.494C12.0822 10.2047 12.8102 10.06 13.6129 10.06C14.3222 10.06 14.9382 10.1767 15.4609 10.41C15.9929 10.634 16.3989 10.956 16.6789 11.376C16.9682 11.796 17.1129 12.2953 17.1129 12.874C17.1129 13.1913 17.0709 13.5087 16.9869 13.826C16.9029 14.134 16.7442 14.4607 16.5109 14.806C16.2775 15.1513 15.9369 15.5387 15.4889 15.968L12.1429 19.146L11.7649 18.46H17.4909V20H10.2669Z" fill="white"/>
<defs>
<linearGradient id="paint0_linear_194_5979" x1="28" y1="30" x2="-0.658559" y2="29.2885" gradientUnits="userSpaceOnUse">
<stop stop-color="#F6BE43"/>
<stop offset="1" stop-color="#FFF06A"/>
</linearGradient>
</defs>
</svg>
