<svg width="28" height="30" viewBox="0 0 28 30" fill="none" xmlns="http://www.w3.org/2000/svg">
<path d="M28 10.618V19.3813C28.0002 20.4761 27.7084 21.5516 27.154 22.4998C26.5996 23.448 25.8021 24.2353 24.8418 24.7824L24.3992 25.0329L20.4348 27.2941L17.1594 29.1629C16.199 29.7112 15.1093 30 14 30C12.8907 30 11.801 29.7112 10.8406 29.1629L9.40512 28.3431L3.15817 24.7824C2.1979 24.2353 1.40048 23.448 0.846092 22.4998C0.2917 21.5516 -0.000113543 20.4761 3.31411e-08 19.3813V10.618C-0.000113543 9.52314 0.2917 8.44757 0.846092 7.49943C1.40048 6.55131 2.1979 5.76404 3.15817 5.21684L10.8406 0.836365C11.8011 0.288467 12.8908 0 14 0C15.1092 0 16.1989 0.288467 17.1594 0.836365L24.8418 5.21684C25.8021 5.76404 26.5996 6.55131 27.154 7.49943C27.7084 8.44757 28.0002 9.52314 28 10.618Z" fill="url(#paint0_linear_194_5982)"/>
<path d="M27 10.6178V10.618V19.3813V19.3815C27.0002 20.2982 26.7559 21.1995 26.2907 21.995C25.8258 22.7902 25.1562 23.452 24.3482 23.9128C24.3477 23.913 24.3472 23.9133 24.3468 23.9136L23.9068 24.1625L23.9037 24.1642L19.9393 26.4254L19.9392 26.4255L16.6638 28.2943L16.6635 28.2945C15.8547 28.7563 14.9359 29 14 29C13.0641 29 12.1454 28.7563 11.3366 28.2945C11.3365 28.2945 11.3365 28.2945 11.3365 28.2945L9.90103 27.4747L9.9003 27.4743L3.65336 23.9137L3.65323 23.9136C2.84458 23.4528 2.17456 22.7907 1.70936 21.995C1.24422 21.1995 0.999905 20.2982 1 19.3814V19.3813V10.618V10.6179C0.999905 9.70107 1.24422 8.79967 1.70935 8.00419C2.17454 7.20863 2.84455 6.54651 3.65327 6.08567L3.6535 6.08554L11.336 1.70507L11.3361 1.70498C12.1452 1.24346 13.064 1 14 1C14.936 1 15.8548 1.24346 16.6639 1.70498L16.664 1.70507L24.3465 6.08554L24.3467 6.08568C25.1555 6.54654 25.8256 7.20866 26.2907 8.0042C26.7559 8.79968 27.0002 9.70105 27 10.6178Z" stroke="white" stroke-opacity="0.2" stroke-width="2"/>
<path d="M13.4729 20.14C12.7822 20.14 12.1055 20.042 11.4429 19.846C10.7895 19.6407 10.2389 19.3607 9.79087 19.006L10.5749 17.592C10.9295 17.8813 11.3589 18.1147 11.8629 18.292C12.3669 18.4693 12.8942 18.558 13.4449 18.558C14.0982 18.558 14.6069 18.4273 14.9709 18.166C15.3349 17.8953 15.5169 17.5313 15.5169 17.074C15.5169 16.626 15.3489 16.2713 15.0129 16.01C14.6769 15.7487 14.1355 15.618 13.3889 15.618H12.4929V14.372L15.2929 11.04L15.5309 11.726H10.2669V10.2H16.9449V11.418L14.1449 14.75L13.1929 14.19H13.7389C14.9429 14.19 15.8435 14.4607 16.4409 15.002C17.0475 15.534 17.3509 16.22 17.3509 17.06C17.3509 17.6107 17.2109 18.1193 16.9309 18.586C16.6509 19.0527 16.2215 19.4307 15.6429 19.72C15.0735 20 14.3502 20.14 13.4729 20.14Z" fill="white"/>
<defs>
<linearGradient id="paint0_linear_194_5982" x1="28" y1="30" x2="-0.658559" y2="29.2885" gradientUnits="userSpaceOnUse">
<stop stop-color="#F6BE43"/>
<stop offset="1" stop-color="#FFF06A"/>
</linearGradient>
</defs>
</svg>
