<svg width="18" height="18" viewBox="0 0 18 18" fill="none" xmlns="http://www.w3.org/2000/svg">
<path d="M9 14.8333C10.3807 14.8333 11.5 13.714 11.5 12.3333C11.5 10.9525 10.3807 9.83325 9 9.83325C7.61929 9.83325 6.5 10.9525 6.5 12.3333C6.5 13.714 7.61929 14.8333 9 14.8333Z" stroke="#BFBFBF" stroke-width="1.2"/>
<path d="M6.59405 12.2999L5.72739 13.1666L4.49572 14.3474C4.22572 14.6066 4.09072 14.7358 4.04405 14.8458C3.99158 14.9628 3.98471 15.0951 4.02479 15.2169C4.06488 15.3387 4.14902 15.4411 4.26072 15.5041C4.36239 15.5616 4.54655 15.5791 4.91322 15.6158C5.11989 15.6358 5.22405 15.6458 5.31072 15.6766C5.40497 15.7092 5.49104 15.7618 5.56298 15.8308C5.63492 15.8999 5.69101 15.9837 5.72739 16.0766C5.75989 16.1599 5.77072 16.2591 5.79155 16.4583C5.82905 16.8099 5.84822 16.9858 5.90822 17.0833C6.04489 17.3058 6.33405 17.3933 6.59489 17.2916C6.70905 17.2458 6.84405 17.1166 7.11405 16.8583L8.99989 15.0499L10.8857 16.8583C11.1557 17.1166 11.2907 17.2458 11.4049 17.2916C11.6657 17.3933 11.9549 17.3058 12.0916 17.0833C12.1516 16.9858 12.1707 16.8099 12.2082 16.4583C12.2291 16.2591 12.2399 16.1599 12.2724 16.0766C12.3088 15.9838 12.3649 15.9 12.4369 15.8309C12.5088 15.7618 12.5948 15.7092 12.6891 15.6766C12.7766 15.6458 12.8799 15.6358 13.0866 15.6158C13.4532 15.5799 13.6374 15.5616 13.7391 15.5041C13.8507 15.4411 13.9349 15.3387 13.975 15.2169C14.0151 15.0951 14.0082 14.9628 13.9557 14.8458C13.9091 14.7358 13.7741 14.6066 13.5041 14.3474L12.2716 13.1666L11.4999 12.3941" stroke="#BFBFBF" stroke-width="1.2"/>
<path d="M13.4332 13.9966C15.0765 13.9791 15.9932 13.8758 16.6007 13.2675C17.3332 12.5358 17.3332 11.3566 17.3332 8.99996L17.2698 3.16663C17.1898 2.35413 17.009 1.80746 16.6007 1.39913C15.869 0.666626 14.6898 0.666626 12.3332 0.666626H5.6665C3.30984 0.666626 2.13067 0.666626 1.399 1.39913C0.666504 2.13079 0.666504 3.30996 0.666504 5.66663V8.99996C0.666504 11.3566 0.666504 12.5358 1.399 13.2675C2.039 13.9083 3.02067 13.9883 4.83317 13.9983M6.49984 3.99996H11.4998M4.83317 6.91663H6.49984M13.1665 6.91663H9.4165" stroke="#BFBFBF" stroke-width="1.2" stroke-linecap="round"/>
</svg>
