<svg width="1440" height="600" viewBox="0 0 1440 600" fill="none" xmlns="http://www.w3.org/2000/svg">
<mask id="mask0_194_5925" style="mask-type:alpha" maskUnits="userSpaceOnUse" x="0" y="0" width="1440" height="600">
<mask id="path-1-inside-1_194_5925" fill="white">
<path d="M0 0H1440V570C1440 586.569 1426.57 600 1410 600H30C13.4314 600 0 586.569 0 570V0Z"/>
</mask>
<path d="M0 0H1440V570C1440 586.569 1426.57 600 1410 600H30C13.4314 600 0 586.569 0 570V0Z" fill="url(#paint0_linear_194_5925)"/>
<path d="M0 0H1440H0ZM1450 570C1450 592.091 1432.09 610 1410 610H30C7.90861 610 -10 592.091 -10 570H10C10 581.046 18.9543 590 30 590H1410C1421.05 590 1430 581.046 1430 570H1450ZM30 610C7.90861 610 -10 592.091 -10 570V0H10V570C10 581.046 18.9543 590 30 590V610ZM1450 0V570C1450 592.091 1432.09 610 1410 610V590C1421.05 590 1430 581.046 1430 570V0H1450Z" fill="white" fill-opacity="0.2" mask="url(#path-1-inside-1_194_5925)"/>
</mask>
<g mask="url(#mask0_194_5925)">
<path opacity="0.2" fill-rule="evenodd" clip-rule="evenodd" d="M134.256 -175.681L98.7933 -210.794L50.4256 -198.073L37.625 -150.267L73.0874 -115.154L121.455 -127.875L134.256 -175.681ZM130.686 -118.67L146.837 -178.99L102.092 -223.294L41.1949 -207.278L26.4618 -152.255L-25.5028 -138.588L-65.0382 -177.733L-121.291 -162.938L-160.261 -201.523L-146.019 -254.711L-190.316 -298.57L-250.602 -282.715L-266.173 -224.562L-315.897 -211.484L-331.886 -151.769L-287.589 -107.909L-232.853 -122.305L-196.963 -86.7688L-210.783 -35.1556L-166.486 8.70394L-106.2 -7.15169L-92.1613 -59.5798L-40.7616 -73.0982L-5.98582 -38.6657L-19.4969 11.7935L-74.4749 26.253L-90.4644 85.9682L-50.9259 125.116L-63.6286 172.557L-116.394 186.434L-132.383 246.149L-88.0866 290.009L-28.419 274.316L4.0918 306.506L3.76241 306.593L-12.2271 366.308L32.0697 410.167L86.4453 395.866L126.422 435.449L186.709 419.593L202.698 359.878L163.16 320.73L177.454 267.348L135.687 225.994L148.099 179.64L200.561 165.842L241.212 206.092L294.909 191.969L337.012 233.657L397.298 217.801L413.288 158.086L372.126 117.33L387.046 61.6085L342.749 17.749L282.463 33.6046L267.882 88.0576L215.416 101.856L174.766 61.6069L120.03 76.0025L84.7462 41.0669L99.6668 -14.6562L60.1297 -53.8031L73.4694 -103.622L130.686 -118.67ZM32.1251 209.249L70.7017 247.445L59.3491 289.843L14.9737 301.514L-20.04 266.846L-7.40137 219.645L32.1251 209.249ZM71.9092 298.173L104.303 330.246L152.296 317.624L164.872 270.657L129.859 235.989L85.4832 247.66L71.9615 298.159L71.9092 298.173ZM84.761 235.285L124.287 224.89L136.926 177.689L101.912 143.02L54.1553 155.581L43.6996 194.629L84.761 235.285ZM-212.543 -178.889L-225.438 -130.73L-191.136 -96.7657L-143.379 -109.326L-130.74 -156.527L-165.754 -191.195L-212.543 -178.889ZM-258.909 -214.839L-224.606 -180.875L-237.502 -132.716L-284.291 -120.41L-319.305 -155.078L-306.666 -202.279L-258.909 -214.839ZM-52.3892 174.26L-16.8844 209.414L30.2044 197.03L42.6648 150.495L7.52873 115.705L-40.0618 128.222L-52.3892 174.26ZM-107.163 195.639L-60.0743 183.255L-24.5695 218.409L-37.031 264.948L-84.7881 277.508L-119.802 242.84L-107.163 195.639ZM51.9758 143.105L99.0608 130.722L111.7 83.5205L76.6858 48.8524L28.9287 61.4127L16.4683 107.948L51.9758 143.105ZM5.0221 104.266L17.5267 57.566L-17.4871 22.8978L-65.2441 35.4582L-77.8828 82.6592L-43.2406 116.959L5.0221 104.266ZM107.283 341.313L155.277 328.691L190.116 363.187L177.478 410.388L129.721 422.948L94.707 388.28L107.283 341.313ZM62.4681 -106.215L27.4543 -140.883L-20.3027 -128.323L-32.9414 -81.1216L2.07229 -46.4535L49.8294 -59.0138L62.4681 -106.215ZM52.0715 -46.0153L87.0853 -11.3471L74.4466 35.8538L26.6895 48.4142L-8.32424 13.7461L4.31445 -33.4549L52.0715 -46.0153ZM206.481 108.775L171.467 74.1073L123.71 86.6676L111.071 133.869L146.085 168.537L193.842 155.976L206.481 108.775ZM339.45 30.2494L374.464 64.9175L361.825 112.118L314.068 124.679L279.055 90.0107L291.693 42.8098L339.45 30.2494ZM-33.3229 -130.564L-68.3367 -165.233L-116.094 -152.672L-128.732 -105.471L-93.7187 -70.8031L-45.9616 -83.3634L-33.3229 -130.564ZM-193.614 -286.07L-158.6 -251.402L-171.239 -204.201L-218.996 -191.64L-254.01 -226.308L-241.371 -273.509L-193.614 -286.07ZM269.893 99.1617L304.907 133.83L292.268 181.031L244.511 193.591L209.497 158.923L222.136 111.722L269.893 99.1617ZM95.7639 337.906L60.7502 303.237L12.9931 315.798L0.354439 362.999L35.3682 397.667L83.1252 385.107L95.7639 337.906ZM400.706 161.395L365.693 126.727L317.936 139.288L305.297 186.489L340.311 221.157L388.068 208.596L400.706 161.395ZM-137.805 -98.226L-102.792 -63.5578L-115.43 -16.3568L-163.187 -3.79647L-198.201 -38.4646L-185.563 -85.6656L-137.805 -98.226Z" fill="#D7D7D7"/>
<path opacity="0.2" fill-rule="evenodd" clip-rule="evenodd" d="M980.506 480.7L1028.65 493.855L1063.65 458.867L1050.48 410.618L1002.34 397.463L967.338 432.452L980.506 480.7ZM1032.07 506.406L1076.23 462.258L1060.66 405.183L1097.13 368.721L1150.8 383.388L1191.6 342.605L1239.5 355.693L1254.4 410.295L1309.58 425.375L1323.86 477.709L1284 517.563L1300.41 577.7L1360.54 594.132L1401.34 553.35L1457.21 568.62L1500.93 524.915L1484.52 464.778L1427.37 449.159L1412.75 395.595L1357.57 380.515L1343.28 328.183L1377.22 294.258L1433.92 309.752L1473 270.682L1526.67 285.349L1570.39 241.644L1553.98 181.506L1499.71 166.677L1484.91 112.434L1424.78 96.0019L1381.06 139.707L1396.03 194.545L1363.31 227.252L1309.76 212.618L1297.62 168.146L1337.19 128.594L1320.77 68.4563L1260.64 52.0239L1216.92 95.7288L1231.29 148.363L1196.55 183.084L1142.88 168.417L1099.16 212.122L1114.13 266.963L1077.18 303.895L1029.98 290.994L1015.98 239.722L1054.37 201.35L1037.96 141.213L977.825 124.781L940.037 162.555L891.316 149.241L876.416 94.6413L816.284 78.2089L772.564 121.914L786.1 171.514L743.524 214.075L759.935 274.213L820.067 290.645L859.009 251.717L911.907 266.173L927.221 322.288L980.889 336.954L995.036 388.79L954.751 429.06L971.329 489.807L1032.07 506.406ZM887.729 159.875L852.468 195.124L865.205 241.796L912.735 254.785L947.293 220.239L934.292 172.6L887.729 159.875ZM844.715 185.669L798.152 172.944L785.151 125.305L819.709 90.7593L867.239 103.748L879.976 150.42L844.715 185.669ZM1286.58 170.416L1238.38 157.245L1204.68 190.939L1217.63 238.414L1265.33 251.447L1299.4 217.389L1286.58 170.416ZM1242.33 146.093L1229.51 99.1203L1264.07 64.5743L1311.6 77.5631L1324.6 125.202L1290.53 159.264L1242.33 146.093ZM1276.4 310.174L1263.58 263.206L1215.38 250.034L1181.31 284.092L1194.31 331.731L1241.84 344.72L1276.4 310.174ZM1172.28 276.142L1206.47 241.963L1193.33 193.818L1146.31 180.968L1111.75 215.514L1124.75 263.153L1172.28 276.142ZM1475.95 259.874L1462.89 211.999L1497.28 177.625L1544.81 190.613L1557.81 238.252L1523.25 272.798L1475.95 259.874ZM1430.49 297.201L1464.88 262.827L1451.81 214.952L1404.52 202.027L1369.96 236.573L1382.96 284.212L1430.49 297.201ZM1005.38 383.963L1052.91 396.952L1087.47 362.406L1074.47 314.767L1026.94 301.778L992.38 336.324L1005.38 383.963ZM1147.38 370.837L1099.85 357.849L1086.85 310.21L1121.4 275.664L1168.93 288.652L1181.94 336.291L1147.38 370.837ZM1263.57 401.188L1311.1 414.177L1345.66 379.631L1332.66 331.992L1285.13 319.003L1250.57 353.549L1263.57 401.188ZM1357.11 581.582L1309.58 568.593L1296.58 520.954L1331.14 486.408L1378.67 499.397L1391.67 547.036L1357.11 581.582ZM936.398 313.181L983.928 326.169L1018.49 291.624L1005.49 243.984L957.955 230.996L923.397 265.542L936.398 313.181ZM816.642 278.094L769.112 265.106L756.111 217.467L790.669 182.921L838.199 195.909L851.2 243.549L816.642 278.094ZM1288.48 306.494L1336.01 319.482L1370.57 284.936L1357.56 237.297L1310.03 224.309L1275.48 258.855L1288.48 306.494ZM1382.02 486.887L1334.49 473.898L1321.48 426.259L1356.04 391.713L1403.57 404.702L1416.57 452.341L1382.02 486.887ZM1406.65 190.737L1454.18 203.726L1488.74 169.18L1475.74 121.541L1428.2 108.552L1393.65 143.098L1406.65 190.737ZM1406.26 543.081L1453.79 556.07L1488.35 521.524L1475.34 473.885L1427.81 460.896L1393.26 495.442L1406.26 543.081ZM1007.22 232.505L959.693 219.516L946.692 171.877L981.25 137.331L1028.78 150.32L1041.78 197.959L1007.22 232.505Z" fill="#D7D7D7"/>
</g>
<defs>
<linearGradient id="paint0_linear_194_5925" x1="60.0001" y1="-207.85" x2="769.826" y2="990.85" gradientUnits="userSpaceOnUse">
<stop stop-color="white" stop-opacity="0.8"/>
<stop offset="1" stop-color="white" stop-opacity="0.4"/>
</linearGradient>
</defs>
</svg>
